<?xml version="1.0" encoding="UTF-8"?>
<!DOCTYPE svg PUBLIC "-//W3C//DTD SVG 1.1//EN" "http://www.w3.org/Graphics/SVG/1.1/DTD/svg11.dtd">
<!-- Creator: CorelDRAW -->
<svg xmlns="http://www.w3.org/2000/svg" xml:space="preserve" width="2048px" height="2048px" style="shape-rendering:geometricPrecision; text-rendering:geometricPrecision; image-rendering:optimizeQuality; fill-rule:evenodd; clip-rule:evenodd"
viewBox="0 0 2048 2048"
 xmlns:xlink="http://www.w3.org/1999/xlink">
 <defs>
  <style type="text/css">
   <![CDATA[
    .fil2 {fill:none}
    .fil1 {fill:#FFB300}
    .fil0 {fill:#FFCA28}
    .fil4 {fill:#1C8E82;fill-rule:nonzero}
    .fil5 {fill:#1F9589;fill-rule:nonzero}
    .fil3 {fill:#229D91;fill-rule:nonzero}
    .fil6 {fill:#2AA89C;fill-rule:nonzero}
   ]]>
  </style>
   <clipPath id="id0">
    <path d="M1024 -0.0011811c565.541,0 1024,458.461 1024,1024 0,565.541 -458.461,1024 -1024,1024 -565.541,0 -1024,-458.461 -1024,-1024 0,-565.541 458.461,-1024 1024,-1024z"/>
   </clipPath>
 </defs>
 <g id="Layer_x0020_1">
  <metadata id="CorelCorpID_0Corel-Layer"/>
  <path class="fil0" d="M1024 -0.0011811c565.541,0 1024,458.461 1024,1024 0,565.541 -458.461,1024 -1024,1024 -565.541,0 -1024,-458.461 -1024,-1024 0,-565.541 458.461,-1024 1024,-1024z"/>
  <g style="clip-path:url(#id0)">
   <g id="_466411672">
    <g>
     <polygon id="_4608877441" class="fil1" points="1550.84,938.691 2686.72,2074.57 2689.09,2085.97 1553.21,950.089 "/>
     <polygon id="_460887720" class="fil1" points="1085.79,507.521 2221.68,1643.4 2223.72,1645.69 2225.72,1648.02 2227.7,1650.4 2229.64,1652.81 2231.55,1655.27 1095.67,519.387 1093.76,516.93 1091.82,514.515 1089.84,512.141 1087.83,509.809 "/>
     <polygon id="_460885440" class="fil1" points="1095.67,519.387 2231.55,1655.27 2234.43,1659.11 2237.25,1663 2240,1666.93 2242.67,1670.9 2245.28,1674.91 2247.81,1678.96 2250.27,1683.05 2252.65,1687.18 2254.96,1691.34 2257.18,1695.54 2259.32,1699.78 2261.38,1704.05 2263.36,1708.36 2265.25,1712.7 2267.05,1717.08 2268.76,1721.49 2270.38,1725.93 2271.91,1730.4 2273.34,1734.9 2274.68,1739.43 2275.92,1743.99 2277.06,1748.58 2278.1,1753.19 2279.04,1757.83 2279.87,1762.5 2280.6,1767.19 2281.22,1771.91 2281.73,1776.65 2282.13,1781.41 2282.41,1786.19 2282.59,1791 2282.65,1795.83 1146.77,659.946 1146.71,655.119 1146.53,650.312 1146.25,645.527 1145.85,640.765 1145.33,636.024 1144.72,631.308 1143.99,626.617 1143.16,621.949 1142.22,617.308 1141.18,612.694 1140.04,608.106 1138.8,603.547 1137.46,599.017 1136.03,594.515 1134.5,590.045 1132.88,585.605 1131.17,581.197 1129.37,576.822 1127.48,572.481 1125.5,568.172 1123.44,563.898 1121.3,559.66 1119.08,555.458 1116.77,551.293 1114.39,547.165 1111.93,543.076 1109.4,539.026 1106.79,535.015 1104.12,531.045 1101.37,527.117 1098.55,523.23 "/>
     <polygon id="_460885224" class="fil1" points="1146.77,659.946 2282.65,1795.83 2283.35,1906.91 1147.47,771.031 "/>
     <polygon id="_460885008" class="fil1" points="1550.38,1091.41 2686.26,2227.29 2281.76,2142.38 1145.88,1006.49 "/>
     <polygon id="_460884792" class="fil1" points="1145.88,1006.49 2281.76,2142.38 2281.71,2149.51 1145.83,1013.63 "/>
     <polygon id="_460884576" class="fil1" points="902.122,1006.49 2038,2142.38 1633.51,2227.29 497.625,1091.41 "/>
     <polygon id="_460884360" class="fil1" points="1124.7,1372.14 2260.58,2508.02 2259.87,2514.09 1123.99,1378.21 "/>
     <polygon id="_460884144" class="fil1" points="1145.83,1013.63 2281.71,2149.51 2280.54,2160.7 2279.33,2171.89 2278.08,2183.07 2276.8,2194.25 2275.5,2205.43 2274.18,2216.61 2272.86,2227.79 2271.54,2238.96 2270.24,2250.14 2268.94,2261.31 2267.68,2272.49 2266.44,2283.67 2265.25,2294.84 2264.1,2306.03 2263.02,2317.21 2261.99,2328.39 2261.04,2339.58 2260.16,2350.77 2259.37,2361.96 2258.68,2373.16 2258.09,2384.36 2257.61,2395.57 2257.25,2406.78 2257.01,2418 2256.91,2429.23 2256.95,2440.46 2257.14,2451.7 2257.48,2462.95 2257.99,2474.2 2258.67,2485.47 2259.53,2496.74 2260.58,2508.02 1124.7,1372.14 1123.65,1360.86 1122.79,1349.58 1122.11,1338.32 1121.6,1327.07 1121.26,1315.82 1121.07,1304.58 1121.03,1293.35 1121.13,1282.12 1121.37,1270.9 1121.73,1259.69 1122.21,1248.48 1122.8,1237.28 1123.49,1226.08 1124.28,1214.89 1125.16,1203.7 1126.11,1192.51 1127.13,1181.32 1128.22,1170.14 1129.37,1158.96 1130.56,1147.78 1131.8,1136.61 1133.06,1125.43 1134.35,1114.26 1135.66,1103.08 1136.98,1091.91 1138.3,1080.73 1139.62,1069.55 1140.92,1058.37 1142.2,1047.19 1143.45,1036 1144.66,1024.82 "/>
     <polygon id="_460883928" class="fil1" points="1304.95,1474.15 2440.83,2610.03 2440.83,2681.38 1304.95,1545.5 "/>
     <polygon id="_460883712" class="fil1" points="1304.95,1545.5 2440.83,2681.38 2440.83,2709.78 1304.95,1573.9 "/>
     <polygon id="_460883496" class="fil1" points="1304.95,1573.9 2440.83,2709.78 2412.75,2702.89 1276.87,1567.01 "/>
     <polygon id="_460883280" class="fil1" points="1276.87,1567.01 2412.75,2702.89 2242.74,2660.12 1106.86,1524.24 "/>
     <polygon id="_460882776" class="fil1" points="1106.86,1524.24 2242.74,2660.12 2242.63,2661.12 1106.74,1525.24 "/>
     <polygon id="_460882608" class="fil1" points="1106.74,1525.24 2242.63,2661.12 2159.88,2719.88 1024,1584 "/>
     <polygon id="_460882392" class="fil1" points="497.625,1091.41 1633.51,2227.29 1599.88,2234.32 463.999,1098.44 "/>
     <polygon id="_460881888" class="fil1" points="941.139,1524.24 2077.02,2660.12 1907.01,2702.89 771.127,1567.01 "/>
     <polygon id="_460881720" class="fil1" points="771.127,1567.01 1907.01,2702.89 1878.94,2709.78 743.055,1573.9 "/>
     <polygon id="_460881504" class="fil1" points="1304.95,1460.01 2440.83,2595.89 2440.83,2610.03 1304.95,1474.15 "/>
     <polygon id="_460880976" class="fil1" points="1024,1584 2159.88,2719.88 2077.14,2661.12 941.255,1525.24 "/>
     <polygon id="_460880808" class="fil1" points="1553.21,950.089 2689.09,2085.97 2713,2201.18 1577.12,1065.3 "/>
     <polygon id="_460880592" class="fil1" points="1577.12,1065.3 2713,2201.18 2719.88,2234.32 1584,1098.44 "/>
     <polygon id="_460880376" class="fil1" points="1584,1098.44 2719.88,2234.32 2686.26,2227.29 1550.38,1091.41 "/>
    </g>
    <path id="_466411528" class="fil1" d="M1147.47 771.031c128.212,53.8666 264.61,109.453 392.497,163.099l10.8744 4.56142 2.36693 11.3976 23.9162 115.213 6.87875 33.1406 -33.626 -7.03347 -404.497 -84.9142 -0.0484252 7.13032c-12.202,119.389 -33.3425,238.128 -21.1323,358.512l-0.712205 6.07205 167.896 75.8162 13.0642 5.98111 0 14.1413 0 71.3481 0 28.4044 -28.0725 -6.89292 -170.012 -42.7666 -0.116929 0.994489 -82.7446 58.7658 -82.7446 -58.7658 -0.116929 -0.994489 -170.012 42.7666 -28.0725 6.89292 0 -28.4044 0 -71.3481 0 -14.1413 13.0642 -5.98111 167.896 -75.8162 -0.712205 -6.07205c12.2102,-120.384 -8.93032,-239.123 -21.1323,-358.512l-0.0484252 -7.13032 -404.497 84.9142 -33.626 7.03347 6.87875 -33.1406 23.9162 -115.213 2.36693 -11.3976 10.8744 -4.56142c127.887,-53.6457 264.285,-109.232 392.497,-163.099l0.701575 -111.085c0,-51.5977 20.0008,-99.7902 51.0969,-140.56 20.1532,-26.4248 46.5414,-45.8894 71.6693,-55.3878 25.128,9.49843 51.5162,28.963 71.6693,55.3878 31.0961,40.7693 51.0969,88.9619 51.0969,140.56l0.701575 111.085z"/>
   </g>
  </g>
  <path class="fil2" d="M1024 -0.0011811c565.541,0 1024,458.461 1024,1024 0,565.541 -458.461,1024 -1024,1024 -565.541,0 -1024,-458.461 -1024,-1024 0,-565.541 458.461,-1024 1024,-1024z"/>
  <path class="fil3" d="M1024 1584l-82.7446 -58.7646 -17.9528 -153.098c12.2102,-120.384 -8.93032,-239.123 -21.1311,-358.512l-1.63937 -242.595 0.701575 -111.084c0,-51.5977 20.0008,-99.7902 51.0969,-140.56 20.1543,-26.4236 46.5414,-45.8894 71.6693,-55.3878 25.128,9.49843 51.515,28.9642 71.6693,55.3878 31.0961,40.7693 51.0969,88.9619 51.0969,140.56l0.701575 111.084 -1.63937 242.595c-12.2008,119.389 -33.3414,238.128 -21.1311,358.512l-17.9528 153.098 -82.7446 58.7646z"/>
  <polygon class="fil4" points="933.602,1368.52 951.378,1521.66 771.126,1567.01 743.053,1573.9 743.053,1545.5 743.053,1474.15 743.053,1460.01 756.119,1454.03 933.602,1373.88 "/>
  <polygon class="fil5" points="1114.4,1368.52 1096.62,1521.66 1276.87,1567.01 1304.95,1573.9 1304.95,1545.5 1304.95,1474.15 1304.95,1460.01 1291.88,1454.03 1114.4,1373.88 "/>
  <path class="fil4" d="M910.911 1010.26l-0.4063 -5.52166 -412.879 86.6753 -33.6248 7.03347 6.87875 -33.1418 23.915 -115.212 2.36693 -11.3965 10.8744 -4.5626c130.824,-54.8776 270.553,-111.786 401.315,-166.808l1.56024 242.934z"/>
  <path class="fil5" d="M1137.09 1010.26l0.4063 -5.52166 412.879 86.6753 33.6248 7.03347 -6.87875 -33.1418 -23.915 -115.212 -2.36693 -11.3965 -10.8744 -4.5626c-130.824,-54.8776 -270.553,-111.786 -401.315,-166.808l-1.56024 242.934z"/>
  <path class="fil3" d="M1024 1584l-82.7446 -58.7646 -17.9528 -153.098c12.2102,-120.384 -8.93032,-239.123 -21.1311,-358.512l-1.63937 -242.595 0.701575 -111.084c0,-51.5977 20.0008,-99.7902 51.0969,-140.56 20.1543,-26.4236 46.5414,-45.8894 71.6693,-55.3878l0 1120z"/>
  <path class="fil6" d="M1024 1584l82.7446 -58.7646 17.9528 -153.098c-12.2102,-120.384 8.93032,-239.123 21.1311,-358.512l1.63937 -242.595 -0.701575 -111.084c0,-51.5977 -20.0008,-99.7902 -51.0969,-140.56 -20.1543,-26.4236 -46.5414,-45.8894 -71.6693,-55.3878l0 1120z"/>
 </g>
</svg>
